GIL01_slow3_RRA_states
nRows=4
nColumns=47

# SIMM Motion File Header:
name GIL01_slow3_RRA_states
datacolumns 47
datarows 4
otherdata 1
range 1.27482999999997040000 1.27632999999997020000
endheader
time	pelvis_tx	pelvis_ty	pelvis_tz	pelvis_tilt	pelvis_list	pelvis_rotation	hip_flexion_r	hip_adduction_r	hip_rotation_r	knee_angle_r	ankle_angle_r	subtalar_angle_r	mtp_angle_r	hip_flexion_l	hip_adduction_l	hip_rotation_l	knee_angle_l	ankle_angle_l	subtalar_angle_l	mtp_angle_l	lumbar_extension	lumbar_bending	lumbar_rotation	pelvis_tx_u	pelvis_ty_u	pelvis_tz_u	pelvis_tilt_u	pelvis_list_u	pelvis_rotation_u	hip_flexion_r_u	hip_adduction_r_u	hip_rotation_r_u	knee_angle_r_u	ankle_angle_r_u	subtalar_angle_r_u	mtp_angle_r_u	hip_flexion_l_u	hip_adduction_l_u	hip_rotation_l_u	knee_angle_l_u	ankle_angle_l_u	subtalar_angle_l_u	mtp_angle_l_u	lumbar_extension_u	lumbar_bending_u	lumbar_rotation_u
      1.27482999999997040000	     -0.31246882043374408000	      0.80272984108813483000	      0.25408126986517621000	     -3.49355922724862640000	     -0.48739914872901613000	     -6.31638366827457440000	      5.44890830146314190000	      7.45191777837394300000	     -6.15967602326858190000	     -3.50808926216254640000	      2.09041795539877520000	      0.00000000000002115928	     -0.00000000000005521745	     20.74174022445002000000	     -7.65196402948523160000	     -6.01387949576661280000	    -53.10240587965919400000	     -3.44452178708930080000	      0.00000000000014464523	     -0.00000000000013913867	      2.94312126545044790000	     -0.91414862442689504000	      0.21730408964042197000	      0.52432394634285040000	      0.01185769199217935100	      0.01429927240023727000	      0.67639240239972809000	     30.93643364620019300000	    -16.25432711720171500000	    -45.99396334046962700000	    -24.68260815020181900000	      8.20991066183172970000	      7.95855293271338750000	     22.56320928765847400000	      0.00000000000011069396	      0.00000000000018738543	     72.90861020226118700000	     43.22603928883200600000	     66.34154568701565300000	    150.09085495919226000000	    112.04957759204292000000	      0.00000000000034699607	     -0.00000000000032530280	      3.83874416222294460000	    -32.26410589755806100000	     42.68246171895192700000
      1.27532999999997030000	     -0.31220659656123861000	      0.80273569183876092000	      0.25408835783118028000	     -3.49321370143671660000	     -0.47193455983686244000	     -6.32448368481359320000	      5.42589991166586480000	      7.43957937503252610000	     -6.15547035828086650000	     -3.50410713365403970000	      2.10172681416526920000	      0.00000000000002121718	     -0.00000000000005512285	     20.77807894124104100000	     -7.63033402679675720000	     -5.98067612441479040000	    -53.02706544526530100000	     -3.38863672681145100000	      0.00000000000014481879	     -0.00000000000013930109	      2.94504929637373360000	     -0.93027723083291691000	      0.23865306999218902000	      0.52457143037710641000	      0.01154488706031035400	      0.01405234250250246200	      0.70568548333264969000	     30.92170402405160700000	    -16.14553844132678900000	    -46.03963933814987500000	    -24.67080954462453200000	      8.61268317888618640000	      7.97001411513706070000	     22.67227625513828200000	      0.00000000000010742310	      0.00000000000020011410	     72.44637390196187700000	     43.29355472358459900000	     66.47166238277867500000	    151.27002368165975000000	    111.49224833904954000000	      0.00000000000034766356	     -0.00000000000032478625	      3.87321552727489580000	    -32.25007272502506300000	     42.71324697878505100000
      1.27582999999997030000	     -0.31194424911562985000	      0.80274138554924468000	      0.25409532195184670000	     -3.49285356953709500000	     -0.45647766575017312000	     -6.33252900688197860000	      5.40286862122821530000	      7.42724716487227090000	     -6.15106339949057630000	     -3.50011919785238490000	      2.11309033735180660000	      0.00000000000002126872	     -0.00000000000005502258	     20.81418672058588400000	     -7.60867089554261700000	     -5.94740812041560480000	    -52.95113671615880000000	     -3.33302799306025980000	      0.00000000000014499306	     -0.00000000000013946303	      2.94699432027493650000	     -0.94639844530406070000	      0.26001712292839013000	      0.52481824052411863000	      0.01122952681312617900	      0.01380387794659659500	      0.73481192091398262000	     30.90564817563700100000	    -16.03555091843694700000	    -46.08556069592167100000	    -24.65783472366935300000	      9.01509882666326060000	      7.98177654718262810000	     22.78197607046201900000	      0.00000000000011130538	      0.00000000000022623006	     71.98487154749256000000	     43.35854540531414600000	     66.60005663546118600000	    152.44402984844078000000	    110.94419395176375000000	      0.00000000000034966153	     -0.00000000000032393132	      3.90672260791528150000	    -32.23452851436371700000	     42.74275008092985900000
      1.27632999999997020000	     -0.31168177843223333000	      0.80274692093309907000	      0.25410216144693715000	     -3.49247891993212890000	     -0.44102913358615631000	     -6.34051903592339450000	      5.37981431182945970000	      7.41492173606350670000	     -6.14645532546779450000	     -3.49612530676621750000	      2.12450889198250700000	      0.00000000000002133284	     -0.00000000000005491550	     20.85006394255938400000	     -7.58697590374756900000	     -5.91407636663171400000	    -52.87462227951215300000	     -3.27769102852921130000	      0.00000000000014516819	     -0.00000000000013962506	      2.94895586186702290000	     -0.96251150555393661000	      0.28139560448119183000	      0.52506438125260890000	      0.01091157208007874200	      0.01355384056184906300	      0.76375582532912301000	     30.88826081940774400000	    -15.92436468042640600000	    -46.13171685238634000000	    -24.64368541236014200000	      9.41711789796983640000	      7.99384110587562800000	     22.89228501993873300000	      0.00000000000015390160	      0.00000000000017186227	     71.52414839210335600000	     43.42100189282670200000	     66.72665758805477800000	    153.61284998732339000000	    110.40516623651996000000	      0.00000000000034995042	     -0.00000000000032464998	      3.93928696208083150000	    -32.21746158858032800000	     42.77095959702543800000
